<svg width="88" height="88" viewBox="0 0 88 88" fill="none" xmlns="http://www.w3.org/2000/svg">
<path d="M43.0572 6.66592C43.3715 5.77713 44.6285 5.77713 44.9428 6.66592L49.6122 19.8698C49.8462 20.5315 50.6713 20.7526 51.2048 20.2965L61.8506 11.1963C62.5672 10.5838 63.6557 11.2123 63.4835 12.1391L60.9254 25.9087C60.7972 26.5988 61.4012 27.2028 62.0913 27.0746L75.8609 24.5165C76.7877 24.3443 77.4162 25.4328 76.8037 26.1494L67.7035 36.7952C67.2474 37.3287 67.4685 38.1538 68.1302 38.3878L81.3341 43.0572C82.2229 43.3715 82.2229 44.6285 81.3341 44.9428L68.1302 49.6122C67.4685 49.8462 67.2474 50.6713 67.7035 51.2048L76.8037 61.8506C77.4162 62.5672 76.7877 63.6557 75.8609 63.4835L62.0913 60.9254C61.4012 60.7972 60.7972 61.4012 60.9254 62.0913L63.4835 75.8609C63.6557 76.7877 62.5672 77.4162 61.8506 76.8037L51.2048 67.7035C50.6713 67.2474 49.8462 67.4685 49.6122 68.1302L44.9428 81.3341C44.6285 82.2229 43.3715 82.2229 43.0572 81.3341L38.3878 68.1302C38.1538 67.4685 37.3287 67.2474 36.7952 67.7035L26.1494 76.8037C25.4328 77.4162 24.3443 76.7877 24.5165 75.8609L27.0746 62.0913C27.2028 61.4012 26.5988 60.7972 25.9087 60.9254L12.1391 63.4835C11.2123 63.6557 10.5838 62.5672 11.1963 61.8506L20.2965 51.2048C20.7526 50.6713 20.5315 49.8462 19.8698 49.6122L6.66592 44.9428C5.77713 44.6285 5.77713 43.3715 6.66592 43.0572L19.8698 38.3878C20.5315 38.1538 20.7526 37.3287 20.2965 36.7952L11.1963 26.1494C10.5838 25.4328 11.2123 24.3443 12.1391 24.5165L25.9087 27.0746C26.5988 27.2028 27.2028 26.5988 27.0746 25.9087L24.5165 12.1391C24.3443 11.2123 25.4328 10.5838 26.1494 11.1963L36.7952 20.2965C37.3287 20.7526 38.1538 20.5315 38.3878 19.8698L43.0572 6.66592Z" fill="url(#paint0_linear_20714_274)"/>
<line x1="44.5" y1="5.46392e-07" x2="44.5" y2="88" stroke="#222222" stroke-width="25"/>
<line y1="44.5" x2="88" y2="44.5" stroke="#222222" stroke-width="25"/>
<path d="M50.48 1.64L49.48 0.86C49.16 0.96 48.62 1.02 47.98 1.02C47.22 1.02 41.04 1.02 40.26 1.02C39.64 1.02 38.5 0.94 38.24 0.899999V2.7C38.46 2.68 39.54 2.6 40.26 2.6C40.94 2.6 47.34 2.6 48.06 2.6C47.54 4.26 46.08 6.64 44.72 8.18C42.66 10.46 39.72 12.86 36.48 14.1L37.76 15.44C40.92 14 43.78 11.62 46.02 9.12C47.68 7.28 49.2 4.48 50 2.5C50.1 2.24 50.36 1.8 50.48 1.64ZM46.28 8.08L45.14 9.2C47.3 11.1 49.64 13.66 51.08 15.56L52.46 14.34C51.1 12.68 48.44 9.88 46.28 8.08ZM50 17.84H48.12C48.18 18.32 48.24 18.9 48.24 19.58C48.24 20.28 48.24 21.96 48.24 22.74C48.24 26.5 47.98 28.14 46.56 29.78C45.32 31.2 43.62 31.98 41.78 32.46L43.1 33.84C44.56 33.34 46.56 32.46 47.84 30.9C49.3 29.2 49.94 27.62 49.94 22.8C49.94 22.06 49.94 20.36 49.94 19.58C49.94 18.9 49.96 18.32 50 17.84ZM40.72 18H38.9C38.96 18.38 38.98 19.08 38.98 19.42C38.98 20.02 38.98 25.24 38.98 26.1C38.98 26.68 38.94 27.32 38.9 27.64H40.72C40.68 27.28 40.66 26.62 40.66 26.1C40.66 25.26 40.66 20.02 40.66 19.42C40.66 18.96 40.68 18.38 40.72 18Z" fill="white"/>
<path d="M37.1157 59.34V61.3C37.7557 61.26 38.8157 61.22 39.9157 61.22C41.3957 61.22 49.3757 61.22 50.8957 61.22C51.7757 61.22 52.6157 61.28 53.0357 61.3V59.34C52.5757 59.38 51.8757 59.46 50.8757 59.46C49.3957 59.46 41.3757 59.46 39.9157 59.46C38.7757 59.46 37.7357 59.4 37.1157 59.34ZM49.6 69.38L48.5 69.84C49 70.56 49.68 71.7 50.08 72.52L51.2 72.02C50.8 71.26 50.08 70.08 49.6 69.38ZM52.18 68.88L51.08 69.34C51.62 70.02 52.26 71.18 52.7 72L53.82 71.52C53.4 70.74 52.66 69.56 52.18 68.88ZM51.4 72.98L50.18 72.2C49.82 72.3 49.42 72.32 49.12 72.32C48.2 72.32 40.22 72.32 39.08 72.32C38.42 72.32 37.64 72.24 37.08 72.18V73.96C37.6 73.92 38.28 73.88 39.08 73.88C40.22 73.88 48.16 73.88 49.3 73.88C49.04 75.8 48.1 78.6 46.68 80.4C45.02 82.54 42.76 84.24 38.9 85.22L40.26 86.72C43.92 85.56 46.3 83.72 48.12 81.36C49.7 79.32 50.68 76.08 51.1 73.98C51.18 73.6 51.28 73.26 51.4 72.98Z" fill="white"/>
<path d="M9.56985 51H6.58985C6.33651 51 6.14985 50.9467 6.02985 50.84C5.92318 50.72 5.86985 50.5333 5.86985 50.28V37.32C5.86985 37.0667 5.92318 36.8867 6.02985 36.78C6.14985 36.66 6.33651 36.6 6.58985 36.6H9.80985C10.0232 36.6 10.1965 36.6467 10.3298 36.74C10.4765 36.8333 10.6098 36.9867 10.7298 37.2L12.5298 40.46C12.5965 40.58 12.6498 40.6667 12.6898 40.72C12.7432 40.7733 12.8098 40.8 12.8898 40.8H13.0698C13.1498 40.8 13.2098 40.7733 13.2498 40.72C13.3032 40.6667 13.3632 40.58 13.4298 40.46L15.2098 37.2C15.3298 36.9867 15.4565 36.8333 15.5898 36.74C15.7365 36.6467 15.9165 36.6 16.1298 36.6H19.3698C19.6232 36.6 19.8032 36.66 19.9098 36.78C20.0298 36.8867 20.0898 37.0667 20.0898 37.32V50.28C20.0898 50.5333 20.0298 50.72 19.9098 50.84C19.8032 50.9467 19.6232 51 19.3698 51H16.2898C16.0365 51 15.8498 50.9467 15.7298 50.84C15.6232 50.72 15.5698 50.5333 15.5698 50.28V43.24L14.3898 45.42C14.2698 45.6467 14.1232 45.8133 13.9498 45.92C13.7898 46.0133 13.5832 46.06 13.3298 46.06H12.5298C12.2765 46.06 12.0632 46.0133 11.8898 45.92C11.7298 45.8133 11.5898 45.6467 11.4698 45.42L10.2898 43.24V50.28C10.2898 50.5333 10.2298 50.72 10.1098 50.84C10.0032 50.9467 9.82318 51 9.56985 51ZM25.1425 51C24.8892 51 24.7025 50.9467 24.5825 50.84C24.4758 50.72 24.4225 50.5333 24.4225 50.28V47.9C24.4225 47.6467 24.4758 47.4667 24.5825 47.36C24.7025 47.24 24.8892 47.18 25.1425 47.18H27.1225V40.46H25.1425C24.8892 40.46 24.7025 40.4067 24.5825 40.3C24.4758 40.18 24.4225 39.9933 24.4225 39.74V37.32C24.4225 37.0667 24.4758 36.8867 24.5825 36.78C24.7025 36.66 24.8892 36.6 25.1425 36.6H33.6625C33.9158 36.6 34.0958 36.66 34.2025 36.78C34.3225 36.8867 34.3825 37.0667 34.3825 37.32V39.74C34.3825 39.9933 34.3225 40.18 34.2025 40.3C34.0958 40.4067 33.9158 40.46 33.6625 40.46H31.7225V47.18H33.6625C33.9158 47.18 34.0958 47.24 34.2025 47.36C34.3225 47.4667 34.3825 47.6467 34.3825 47.9V50.28C34.3825 50.5333 34.3225 50.72 34.2025 50.84C34.0958 50.9467 33.9158 51 33.6625 51H25.1425ZM42.4719 51H39.4719C39.2185 51 39.0319 50.9467 38.9119 50.84C38.8052 50.72 38.7519 50.5333 38.7519 50.28V37.32C38.7519 37.0667 38.8052 36.8867 38.9119 36.78C39.0319 36.66 39.2185 36.6 39.4719 36.6H41.5519C41.8052 36.6 42.0185 36.64 42.1919 36.72C42.3785 36.8 42.5585 36.94 42.7319 37.14L46.6119 41.58V37.32C46.6119 37.0667 46.6652 36.8867 46.7719 36.78C46.8919 36.66 47.0785 36.6 47.3319 36.6H50.3319C50.5852 36.6 50.7652 36.66 50.8719 36.78C50.9919 36.8867 51.0519 37.0667 51.0519 37.32V50.28C51.0519 50.5333 50.9919 50.72 50.8719 50.84C50.7652 50.9467 50.5852 51 50.3319 51H47.3319C47.0785 51 46.8919 50.9467 46.7719 50.84C46.6652 50.72 46.6119 50.5333 46.6119 50.28V47.82L43.1919 43.68V50.28C43.1919 50.5333 43.1319 50.72 43.0119 50.84C42.9052 50.9467 42.7252 51 42.4719 51ZM66.7105 51H60.4105C58.7438 51 57.5038 50.6667 56.6905 50C55.8905 49.3333 55.4905 48.3067 55.4905 46.92V40.68C55.4905 39.2933 55.8905 38.2667 56.6905 37.6C57.5038 36.9333 58.7438 36.6 60.4105 36.6H65.4105C65.6638 36.6 65.8438 36.66 65.9505 36.78C66.0705 36.8867 66.1305 37.0667 66.1305 37.32V39.74C66.1305 39.9933 66.0705 40.18 65.9505 40.3C65.8438 40.4067 65.6638 40.46 65.4105 40.46H61.2505C60.8371 40.46 60.5305 40.5467 60.3305 40.72C60.1305 40.88 60.0305 41.1267 60.0305 41.46V46.24C60.0305 46.5733 60.1038 46.82 60.2505 46.98C60.4105 47.14 60.6438 47.22 60.9505 47.22H62.8905V44.1C62.8905 43.8467 62.9438 43.6667 63.0505 43.56C63.1705 43.44 63.3571 43.38 63.6105 43.38H66.7105C66.9638 43.38 67.1438 43.44 67.2505 43.56C67.3705 43.6667 67.4305 43.8467 67.4305 44.1V50.28C67.4305 50.5333 67.3705 50.72 67.2505 50.84C67.1438 50.9467 66.9638 51 66.7105 51ZM76.9906 40.8L76.0506 43.84H79.1906L78.2506 40.8C78.1973 40.68 78.1373 40.5933 78.0706 40.54C78.0173 40.4867 77.9506 40.46 77.8706 40.46H77.3706C77.2906 40.46 77.2173 40.4867 77.1506 40.54C77.0973 40.5933 77.044 40.68 76.9906 40.8ZM75.8506 50.28C75.8506 50.5333 75.7906 50.72 75.6706 50.84C75.564 50.9467 75.384 51 75.1306 51H72.1906C71.9373 51 71.7506 50.9467 71.6306 50.84C71.524 50.72 71.4706 50.5333 71.4706 50.28V45C71.4706 44.6 71.5306 44.14 71.6506 43.62C71.784 43.1 71.984 42.4933 72.2506 41.8L73.9906 37.26C74.0706 37.0333 74.1906 36.8667 74.3506 36.76C74.524 36.6533 74.744 36.6 75.0106 36.6H80.3906C80.644 36.6 80.8506 36.6533 81.0106 36.76C81.184 36.8667 81.3106 37.0333 81.3906 37.26L83.1306 41.8C83.3973 42.4933 83.5906 43.1 83.7106 43.62C83.844 44.14 83.9106 44.6 83.9106 45V50.28C83.9106 50.5333 83.8506 50.72 83.7306 50.84C83.624 50.9467 83.444 51 83.1906 51H80.1706C79.904 51 79.704 50.9467 79.5706 50.84C79.4506 50.72 79.3906 50.5333 79.3906 50.28V47.48H75.8506V50.28Z" fill="white"/>
<defs>
<linearGradient id="paint0_linear_20714_274" x1="-20.8372" y1="-0.248927" x2="31.5309" y2="104.265" gradientUnits="userSpaceOnUse">
<stop stop-color="#F9A8D4"/>
<stop offset="0.666667" stop-color="#F472B6"/>
</linearGradient>
</defs>
</svg>
